<?xml version="1.0" encoding="UTF-8" standalone="no"?>
<!-- Created with Inkscape (http://www.inkscape.org/) -->

<svg
   width="512"
   height="512"
   viewBox="0 0 512 512"
   version="1.1"
   id="svg1"
   xml:space="preserve"
   inkscape:version="1.3 (0e150ed6c4, 2023-07-21)"
   sodipodi:docname="hmm.svg"
   xmlns:inkscape="http://www.inkscape.org/namespaces/inkscape"
   xmlns:sodipodi="http://sodipodi.sourceforge.net/DTD/sodipodi-0.dtd"
   xmlns:xlink="http://www.w3.org/1999/xlink"
   xmlns="http://www.w3.org/2000/svg"
   xmlns:svg="http://www.w3.org/2000/svg"><sodipodi:namedview
     id="namedview1"
     pagecolor="#505050"
     bordercolor="#ffffff"
     borderopacity="1"
     inkscape:showpageshadow="0"
     inkscape:pageopacity="0"
     inkscape:pagecheckerboard="1"
     inkscape:deskcolor="#505050"
     inkscape:document-units="px"
     inkscape:zoom="1.5233179"
     inkscape:cx="149.01682"
     inkscape:cy="289.17141"
     inkscape:window-width="2560"
     inkscape:window-height="1334"
     inkscape:window-x="1285"
     inkscape:window-y="-11"
     inkscape:window-maximized="1"
     inkscape:current-layer="layer1" /><defs
     id="defs1"><linearGradient
       id="linearGradient7"
       inkscape:collect="always"><stop
         style="stop-color:#ffffff;stop-opacity:1;"
         offset="0.26902175"
         id="stop7" /><stop
         style="stop-color:#000000;stop-opacity:0;"
         offset="1"
         id="stop8" /></linearGradient><linearGradient
       id="linearGradient5"
       inkscape:collect="always"><stop
         style="stop-color:#000000;stop-opacity:1;"
         offset="0"
         id="stop5" /><stop
         style="stop-color:#000000;stop-opacity:0;"
         offset="1"
         id="stop6" /></linearGradient><linearGradient
       id="linearGradient3"
       inkscape:collect="always"><stop
         style="stop-color:#000000;stop-opacity:1;"
         offset="0"
         id="stop3" /><stop
         style="stop-color:#000000;stop-opacity:0;"
         offset="1"
         id="stop4" /></linearGradient><linearGradient
       id="linearGradient1"
       inkscape:collect="always"><stop
         style="stop-color:#020202;stop-opacity:0;"
         offset="0"
         id="stop1" /><stop
         style="stop-color:#ffffff;stop-opacity:1"
         offset="1"
         id="stop2" /></linearGradient><clipPath
       clipPathUnits="userSpaceOnUse"
       id="clipPath5238-1-8-9-8-4"><rect
         transform="rotate(-90)"
         style="color:#000000;display:inline;overflow:visible;visibility:visible;fill:#ffffff;fill-opacity:1;fill-rule:evenodd;stroke:none;enable-background:accumulate"
         id="rect5240-2-3-9-5-1"
         width="315.35437"
         height="744.09448"
         x="-1016.9291"
         y="1461.6753" /></clipPath><clipPath
       clipPathUnits="userSpaceOnUse"
       id="clipPath5242-3-9-7-7"><rect
         transform="rotate(-90)"
         style="color:#000000;display:inline;overflow:visible;visibility:visible;fill:#ffffff;fill-opacity:1;fill-rule:evenodd;stroke:none;enable-background:accumulate"
         id="rect5244-3-2-6-6"
         width="315.35437"
         height="744.09448"
         x="-1016.9291"
         y="1461.6753" /></clipPath><linearGradient
       inkscape:collect="always"
       xlink:href="#linearGradient1"
       id="linearGradient2"
       x1="331.89484"
       y1="105.3708"
       x2="188.92477"
       y2="376.92111"
       gradientUnits="userSpaceOnUse" /><linearGradient
       inkscape:collect="always"
       xlink:href="#linearGradient3"
       id="linearGradient4"
       x1="188.92477"
       y1="376.92111"
       x2="331.89484"
       y2="105.3708"
       gradientUnits="userSpaceOnUse" /><linearGradient
       inkscape:collect="always"
       xlink:href="#linearGradient5"
       id="linearGradient6"
       x1="472.6525"
       y1="134.57466"
       x2="-316.41458"
       y2="753.6181"
       gradientUnits="userSpaceOnUse" /><linearGradient
       inkscape:collect="always"
       xlink:href="#linearGradient7"
       id="linearGradient8"
       x1="472.6525"
       y1="134.57466"
       x2="-316.41458"
       y2="753.6181"
       gradientUnits="userSpaceOnUse" /></defs><g
     inkscape:label="图层 1"
     inkscape:groupmode="layer"
     id="layer1"><path
       style="display:inline;vector-effect:none;fill:url(#linearGradient2);fill-opacity:1;fill-rule:evenodd;stroke:url(#linearGradient4);stroke-width:11.2413px;stroke-linecap:butt;stroke-linejoin:miter;stroke-miterlimit:4;stroke-dasharray:none;stroke-dashoffset:0;stroke-opacity:1;marker:none"
       d="m 228.11373,4.6418858 c -15.42852,1.14943 -30.72213,3.69628 -45.69076,7.5993202 -8.76931,2.46403 -17.38909,5.39402 -25.84149,8.7693 l 2.78188,76.45482 C 140.96034,107.55987 124.40645,120.71674 110.40876,136.3616 L 36.683136,116.72668 c -13.76477,20.37621 -24.52175,42.63064 -31.9409402,66.07467 l 61.4739202,45.53061 c -3.57176,20.72933 -3.59244,41.91528 -0.0467,62.65092 l -61.5275302,45.4229 c 7.4336802,23.46577 18.2067802,45.73783 31.9942102,66.12864 l 73.725974,-19.68888 c 14.02969,15.6542 30.62014,28.80699 49.06136,38.89627 l -2.83573,76.45388 c 22.95425,8.85201 47.064,14.34649 71.58575,16.31886 l 30.60332,-69.92713 c 12.81708,-0.7254 25.53054,-2.69181 37.93281,-5.99456 7.83738,-2.18461 15.52256,-4.87643 23.00611,-8.07567 l 58.31708,50.02401 c 21.20662,-12.46944 40.50594,-27.92903 57.30081,-45.90441 l -35.73943,-67.68048 c 12.12987,-17.11505 21.26631,-36.16404 27.0186,-56.33735 l 75.49147,-14.33936 c 3.45775,-24.35097 3.37831,-49.07352 -0.21611,-73.40486 l -75.11708,-14.28446 c -5.80824,-20.224 -15.01664,-39.31248 -27.2326,-56.44505 l 35.68978,-67.572794 c -16.79638,-17.97443 -36.0943,-33.43496 -57.30092,-45.9044 l -58.15681,50.02401 c -19.37221,-8.08596 -39.97866,-12.83086 -60.93904,-14.01743 z M 248.65861,138.6114 c 66.85381,-0.0117 121.06202,54.16791 121.07522,121.02172 -0.0234,5.15386 -0.38664,10.3006 -1.07116,15.40878 l -59.81554,-18.45792 c -1.53106,-29.13103 -23.94727,-52.8317 -52.48536,-56.5517 l -13.96428,-61.20653 c 2.08439,-0.12265 4.17159,-0.19274 6.2596,-0.20793 z m -46.65399,9.52508 13.91044,60.99323 c -16.56931,10.83162 -27.66049,29.46441 -27.66049,50.55925 0,8.27227 1.6981,16.16981 4.76161,23.37979 l -45.79799,42.5345 c -12.77175,-19.63188 -19.57394,-42.54747 -19.58177,-65.96814 0.0701,-48.75088 29.38755,-92.69927 74.36797,-111.49863 z m 46.70749,89.08172 c 12.57632,0 22.20338,9.89782 22.20338,22.47076 0,12.5762 -9.62752,22.20373 -22.20338,22.20373 -12.57644,0 -22.471,-9.62858 -22.471,-22.20373 0,-12.57714 9.89362,-22.47076 22.471,-22.47076 z m 47.77725,58.9051 59.92231,18.51166 c -20.65294,40.51855 -62.27455,66.04149 -107.75306,66.07572 -26.45428,-0.0584 -52.16214,-8.77456 -73.19097,-24.82511 l 45.95837,-42.64114 c 8.25054,4.25522 17.43955,6.90569 27.2861,6.90569 19.45666,0 36.68713,-9.56643 47.77725,-24.02273 z"
       id="path9591"
       inkscape:connector-curvature="0"
       sodipodi:nodetypes="cccccccccccccccccccccccccccccccccccccccccscccscssssscccccscc" /><path
       d="M 446.9224,18.796961 C 291.49322,13.628513 164.18426,70.959296 164.18426,70.959296 l -0.0927,290.940844 c -15.82548,-6.28193 -35.07028,-7.77123 -54.61667,-3.02034 -42.140909,10.23947 -69.736889,45.56027 -61.636259,78.90464 8.10064,33.34436 48.82651,52.07882 90.962789,41.844 39.73301,-9.65489 66.52172,-41.61202 62.66626,-73.17481 L 200.5393,97.62289 c 0,0 91.41819,-31.938818 208.19073,-39.830678 l -0.46419,253.592618 c -15.65379,-5.99426 -34.53207,-7.35367 -53.72121,-2.69091 -42.14094,10.23482 -69.73692,45.55562 -61.63629,78.90462 8.09601,33.34438 48.82188,52.07419 90.96282,41.83937 36.79617,-8.9404 62.49922,-37.0096 63.0374,-66.17839 l 0.0142,0.019 z"
       fill="#000000"
       id="path1"
       style="stroke-width:6.25133858;fill-opacity:1;fill:url(#linearGradient6);stroke:url(#linearGradient8);stroke-dasharray:none"
       sodipodi:nodetypes="ccccsccccccccccc" /></g></svg>
